<?xml version="1.0" standalone="no"?>
<!DOCTYPE svg PUBLIC "-//W3C//DTD SVG 20010904//EN"
 "http://www.w3.org/TR/2001/REC-SVG-20010904/DTD/svg10.dtd">
<svg version="1.0" xmlns="http://www.w3.org/2000/svg"
 width="637.000000pt" height="218.000000pt" viewBox="0 0 637.000000 218.000000"
 preserveAspectRatio="xMidYMid meet">

<g transform="translate(0.000000,218.000000) scale(0.100000,-0.100000)"
fill="#000000" stroke="none">
<path d="M3993 1780 c-110 -23 -191 -113 -223 -247 -12 -52 -12 -53 -50 -53
l-37 0 -12 -57 c-15 -76 -16 -73 24 -73 19 0 35 -4 35 -9 0 -18 -98 -537 -105
-553 -6 -16 0 -18 55 -18 71 0 113 20 130 59 8 20 100 493 100 515 0 3 34 6
76 8 69 3 79 6 96 28 10 14 21 42 25 63 l6 37 -88 0 -87 0 7 38 c13 70 62 116
140 129 21 3 49 16 61 28 22 22 42 90 30 102 -10 10 -139 12 -183 3z"/>
<path d="M2110 1639 c-87 -14 -188 -69 -253 -138 -71 -74 -113 -161 -127 -261
-22 -162 36 -288 159 -343 71 -32 223 -36 332 -7 158 41 375 160 292 160 -14
0 -13 3 5 16 33 23 28 38 -10 30 l-32 -6 29 30 c36 37 26 49 -22 26 l-36 -17
16 25 c37 55 18 60 -46 11 -55 -42 -59 -43 -51 -10 11 42 -21 30 -59 -24 -29
-40 -45 -52 -89 -67 -109 -36 -204 -18 -242 46 -23 39 -21 153 3 206 49 107
136 158 260 152 l75 -3 23 74 c13 41 20 78 15 83 -11 11 -107 28 -151 27 -20
-1 -61 -5 -91 -10z"/>
<path d="M3147 1513 c-54 -13 -68 -20 -71 -37 -3 -12 -25 -135 -51 -275 -25
-139 -49 -267 -52 -282 l-5 -29 89 0 90 0 22 123 c40 222 72 301 138 339 41
24 77 15 93 -23 10 -24 7 -56 -16 -189 -26 -152 -27 -162 -11 -195 17 -36 69
-60 117 -53 24 3 27 11 62 183 44 221 48 316 15 366 -33 50 -80 71 -148 66
-64 -5 -110 -26 -158 -71 l-33 -31 7 49 c3 27 9 55 12 62 6 17 -11 17 -100 -3z"/>
<path d="M2610 1497 c-63 -18 -111 -49 -164 -108 -56 -63 -107 -189 -76 -189
6 0 10 -7 10 -15 0 -20 4 -19 51 12 l41 27 18 -22 c28 -34 45 -27 58 24 25 91
75 143 140 144 71 0 99 -45 89 -145 -7 -69 -42 -149 -79 -180 -34 -29 -92 -33
-125 -10 -18 13 -22 13 -27 0 -3 -8 -30 -31 -61 -51 -30 -20 -55 -40 -55 -45
0 -4 21 -18 48 -31 39 -19 62 -23 137 -22 77 0 98 4 146 27 183 88 266 355
155 500 -47 61 -104 89 -190 94 -39 1 -91 -3 -116 -10z"/>
<path d="M4330 1496 c-119 -32 -208 -108 -262 -222 -23 -50 -31 -84 -35 -148
-5 -74 -3 -89 19 -138 58 -126 201 -143 312 -36 27 26 51 48 53 48 2 0 3 -13
3 -29 0 -48 27 -71 93 -78 l57 -6 1 39 c0 21 2 48 4 59 1 11 6 49 9 85 4 36
22 141 41 235 19 93 31 173 27 177 -27 27 -242 36 -322 14z m117 -124 c8 -5 7
-30 -8 -100 -34 -166 -82 -242 -155 -242 -94 0 -90 174 7 284 48 55 119 81
156 58z"/>
<path d="M2963 684 c-8 -20 8 -36 26 -25 15 10 8 41 -9 41 -6 0 -13 -7 -17
-16z"/>
<path d="M2850 683 c0 -5 -7 -48 -16 -96 -17 -99 -10 -120 34 -115 32 4 42 28
12 28 -20 0 -22 4 -16 31 3 17 6 40 6 50 0 14 7 19 25 19 16 0 25 6 25 15 0 9
-9 15 -21 15 -18 0 -20 4 -14 30 6 26 4 30 -14 30 -12 0 -21 -3 -21 -7z"/>
<path d="M4015 595 c-19 -106 -13 -129 33 -123 32 4 42 28 12 28 -20 0 -22 4
-16 38 3 20 6 43 6 50 0 6 11 12 25 12 16 0 25 6 25 15 0 9 -9 15 -21 15 -18
0 -20 4 -14 30 6 25 4 30 -13 30 -17 0 -22 -13 -37 -95z"/>
<path d="M4386 663 c-5 -23 -12 -28 -36 -29 -59 -2 -103 -79 -77 -133 13 -28
50 -39 71 -22 9 7 16 7 24 -1 18 -18 23 -6 38 84 8 46 16 93 19 106 4 17 1 22
-14 22 -13 0 -21 -9 -25 -27z m-16 -82 c0 -46 -17 -81 -39 -81 -39 0 -34 76 6
99 28 16 33 13 33 -18z"/>
<path d="M2361 659 c-68 -63 -46 -189 33 -189 33 0 77 21 73 34 -4 11 -18 12
-53 1 -34 -10 -57 21 -51 68 9 64 61 99 95 65 19 -19 40 6 22 27 -19 23 -91
20 -119 -6z"/>
<path d="M2544 630 c-32 -13 -54 -50 -54 -92 0 -56 40 -83 95 -62 44 17 61
122 23 148 -25 18 -34 19 -64 6z m44 -58 c4 -40 -13 -72 -38 -72 -17 0 -20 7
-20 39 0 67 52 97 58 33z"/>
<path d="M2735 629 c-11 -4 -29 -5 -40 -2 -19 4 -22 -3 -34 -72 -7 -42 -10
-79 -7 -82 15 -16 35 11 41 57 12 85 64 112 56 29 -7 -78 -6 -84 9 -84 16 0
43 107 34 136 -6 20 -32 29 -59 18z"/>
<path d="M3054 626 c-18 -8 -36 -27 -44 -46 -12 -29 -12 -37 3 -63 16 -27 16
-31 2 -47 -22 -25 -19 -59 8 -71 34 -15 75 4 91 43 15 36 42 176 35 182 -13
12 -68 13 -95 2z m53 -53 c-7 -43 -29 -68 -51 -60 -37 14 -2 97 40 97 14 0 15
-7 11 -37z m-17 -107 c0 -16 -26 -46 -40 -46 -21 0 -21 25 0 42 27 22 40 23
40 4z"/>
<path d="M3224 630 c-49 -20 -73 -110 -38 -144 18 -19 62 -20 85 -3 44 34 54
116 17 141 -25 18 -34 19 -64 6z m44 -58 c4 -40 -13 -72 -38 -72 -17 0 -20 7
-20 39 0 67 52 97 58 33z"/>
<path d="M3530 633 c-38 -14 -60 -47 -60 -89 0 -62 38 -90 94 -68 29 11 18 32
-16 30 -28 -1 -34 3 -36 23 -2 12 -1 34 3 48 5 23 10 25 40 20 52 -9 61 23 10
36 -11 3 -27 3 -35 0z"/>
<path d="M3659 629 c-47 -17 -71 -105 -40 -143 36 -44 119 1 127 69 8 62 -30
94 -87 74z m35 -25 c22 -8 20 -56 -2 -85 -29 -34 -56 -19 -49 27 3 20 11 42
18 50 13 16 12 16 33 8z"/>
<path d="M3857 633 c-4 -3 -20 -6 -36 -5 -33 1 -36 -6 -47 -101 -6 -48 -4 -57
9 -57 12 0 19 17 28 60 8 40 18 64 30 70 26 15 32 -2 24 -71 -6 -49 -4 -59 8
-59 19 0 24 15 33 88 6 54 4 61 -14 71 -24 13 -27 13 -35 4z"/>
<path d="M4153 625 c-67 -29 -67 -145 -1 -153 38 -5 67 14 84 53 17 42 18 66
2 87 -19 24 -49 29 -85 13z m45 -27 c29 -29 -6 -108 -43 -94 -14 5 -16 14 -12
42 6 35 22 64 36 64 4 0 12 -5 19 -12z"/>
<path d="M4483 625 c-67 -29 -67 -145 -1 -153 39 -5 67 14 84 55 20 46 10 91
-23 104 -13 5 -25 9 -26 9 -1 -1 -16 -7 -34 -15z m47 -30 c14 -17 5 -68 -16
-85 -37 -32 -61 32 -28 78 18 26 27 27 44 7z"/>
<path d="M2946 607 c-3 -13 -8 -49 -12 -80 -6 -48 -4 -57 9 -57 17 0 22 13 32
80 4 25 9 53 11 63 4 12 0 17 -14 17 -12 0 -22 -9 -26 -23z"/>
<path d="M3321 479 c-14 -40 -14 -49 -1 -49 13 0 51 61 44 72 -11 18 -33 6
-43 -23z"/>
</g>
</svg>
