<?xml version="1.0" standalone="no"?>
<!DOCTYPE svg PUBLIC "-//W3C//DTD SVG 20010904//EN"
 "http://www.w3.org/TR/2001/REC-SVG-20010904/DTD/svg10.dtd">
<svg version="1.0" xmlns="http://www.w3.org/2000/svg"
 width="637.000000pt" height="218.000000pt" viewBox="0 0 637.000000 218.000000"
 preserveAspectRatio="xMidYMid meet">

<g transform="translate(0.000000,218.000000) scale(0.100000,-0.100000)"
fill="#000000" stroke="none">
<path d="M3250 2103 c-57 -20 -121 -66 -190 -139 l-53 -56 -68 16 c-76 18
-167 21 -221 6 -26 -8 -57 -32 -106 -86 -85 -92 -127 -169 -117 -216 13 -59
59 -131 131 -203 l72 -72 -30 -99 c-44 -146 -38 -253 15 -301 25 -23 139 -64
241 -88 63 -14 74 -14 123 0 44 13 69 31 133 91 l78 75 94 -32 c109 -37 187
-41 245 -13 31 15 44 32 70 87 35 72 73 202 73 247 0 43 -51 127 -114 190
l-58 58 16 49 c21 60 31 175 22 238 -6 38 -17 58 -54 98 -82 87 -200 168 -244
167 -7 -1 -33 -8 -58 -17z m135 -281 c-10 -84 -13 -87 -68 -61 -26 13 -47 29
-47 35 0 14 110 97 118 90 2 -3 1 -31 -3 -64z m-567 -98 c23 -4 42 -11 42 -16
0 -5 -12 -31 -26 -59 -25 -50 -26 -51 -46 -32 -23 20 -78 102 -78 116 0 5 15
7 33 3 17 -3 51 -8 75 -12z m371 -160 c89 -53 89 -54 51 -127 -51 -97 -47 -96
-134 -48 -45 25 -76 49 -76 58 0 18 81 153 92 153 3 0 34 -16 67 -36z m350
-265 c26 -30 40 -54 34 -60 -8 -8 -131 6 -141 16 -8 8 44 95 57 95 3 0 26 -23
50 -51z m-559 -140 c22 -12 40 -27 40 -34 0 -13 -91 -95 -105 -95 -9 0 1 125
10 140 8 13 8 13 55 -11z"/>
<path d="M2730 633 c0 -17 24 -23 164 -38 241 -27 738 -17 771 16 12 12 23 12
-330 13 -170 1 -376 5 -457 10 -102 6 -148 6 -148 -1z"/>
<path d="M3014 526 c-3 -8 -4 -27 -2 -43 3 -27 5 -28 65 -31 l62 -3 3 -137 3
-137 35 0 35 0 3 137 3 137 62 3 62 3 0 40 0 40 -163 3 c-134 2 -163 0 -168
-12z"/>
<path d="M3382 532 c-9 -7 -12 -50 -10 -183 l3 -174 155 0 155 0 0 40 0 40
-112 3 c-113 3 -113 3 -113 27 0 25 1 25 84 25 96 0 101 4 87 83 0 4 -39 7
-86 7 -84 0 -85 0 -85 25 0 24 0 24 113 27 l112 3 3 34 c2 20 -2 37 -10 42
-17 11 -279 11 -296 1z"/>
<path d="M3823 530 c-79 -18 -133 -91 -133 -177 0 -62 26 -110 79 -148 36 -25
51 -30 102 -29 50 1 65 5 96 30 50 41 62 62 43 74 -34 22 -61 23 -84 1 -31
-29 -87 -28 -123 3 -23 20 -28 32 -28 71 0 39 5 51 28 71 35 30 85 31 120 4
31 -25 48 -25 78 -1 l24 19 -25 27 c-45 49 -114 70 -177 55z"/>
<path d="M4135 532 c-55 -19 -85 -61 -85 -120 l0 -44 -77 5 c-43 3 -89 7 -103
9 -22 3 -25 -1 -25 -27 0 -34 24 -45 48 -20 11 11 36 15 92 15 63 0 81 -4 106
-22 23 -17 49 -24 102 -28 58 -4 72 -8 75 -23 3 -15 -7 -17 -107 -17 l-111 0
0 -45 0 -45 106 0 c127 0 169 15 191 68 18 43 10 78 -25 115 -23 24 -33 27
-92 27 -72 0 -104 15 -98 46 3 17 15 20 113 24 l110 5 0 40 0 40 -100 2 c-55
1 -109 -2 -120 -5z"/>
<path d="M2069 515 c-15 -8 -34 -31 -44 -52 -16 -33 -16 -41 -4 -77 20 -57 53
-77 132 -81 72 -4 87 -9 87 -30 0 -20 -24 -25 -131 -25 l-100 0 3 -32 3 -33
117 -3 c117 -3 117 -3 150 27 27 24 33 36 33 71 0 35 -6 47 -33 71 -29 26 -39
29 -100 29 -70 0 -92 10 -92 42 0 29 33 38 134 38 l96 0 0 35 0 35 -112 0
c-78 -1 -121 -5 -139 -15z"/>
<path d="M2350 355 l0 -175 150 0 150 0 0 35 0 34 -107 3 -108 3 -3 33 -3 32
85 0 86 0 0 35 0 35 -85 0 -85 0 0 35 0 35 110 0 110 0 0 35 0 35 -150 0 -150
0 0 -175z"/>
<path d="M2690 355 l0 -175 35 0 c33 0 35 2 35 35 0 19 3 35 8 36 62 8 77 3
101 -33 21 -33 29 -38 63 -38 44 0 46 6 17 54 l-21 36 26 30 c28 34 42 87 31
127 -3 15 -23 44 -44 65 l-39 38 -106 0 -106 0 0 -175z m206 80 c19 -25 17
-65 -3 -87 -12 -13 -31 -18 -75 -18 l-58 0 0 58 c0 32 3 62 8 66 14 15 114 0
128 -19z"/>
<path d="M2275 130 c-6 -10 15 -50 27 -50 9 0 10 8 2 38 -7 23 -19 29 -29 12z"/>
<path d="M2367 133 c-11 -10 -8 -53 3 -53 6 0 10 14 10 30 0 31 -2 35 -13 23z"/>
<path d="M2447 133 c-13 -12 -7 -43 7 -43 19 0 28 14 20 34 -7 17 -16 20 -27
9z"/>
<path d="M2677 133 c-14 -13 -7 -53 9 -53 14 0 15 2 3 17 -11 13 -11 17 -1 20
6 3 12 9 12 14 0 11 -14 12 -23 2z"/>
<path d="M2811 127 c-15 -19 -3 -47 21 -47 15 0 19 6 16 27 -4 31 -20 40 -37
20z"/>
<path d="M2905 130 c-10 -16 5 -50 21 -50 16 0 19 16 3 25 -6 4 -8 13 -5 21 6
16 -10 19 -19 4z"/>
<path d="M3050 116 c0 -14 5 -26 10 -26 6 0 10 7 10 15 0 8 0 18 1 22 0 4 -4
9 -10 11 -6 2 -11 -8 -11 -22z"/>
<path d="M3132 128 c-17 -17 -15 -48 3 -48 10 0 15 10 15 30 0 34 -1 35 -18
18z"/>
<path d="M3217 133 c-14 -13 -7 -53 9 -53 14 0 14 3 4 15 -10 12 -10 18 0 30
12 14 0 22 -13 8z"/>
<path d="M3447 133 c-4 -3 -7 -17 -7 -30 0 -16 6 -23 18 -22 10 0 12 3 5 6
-15 6 -17 33 -3 33 6 0 10 5 10 10 0 11 -13 13 -23 3z"/>
<path d="M3522 123 c-13 -25 -4 -43 19 -43 25 0 35 25 19 45 -16 20 -27 19
-38 -2z"/>
<path d="M3616 132 c-9 -15 6 -52 20 -52 17 0 19 16 3 25 -6 4 -8 13 -5 21 6
15 -9 20 -18 6z"/>
<path d="M3756 132 c-3 -5 -2 -18 1 -30 6 -25 33 -30 33 -7 0 8 -4 15 -10 15
-5 0 -7 7 -4 15 6 16 -11 21 -20 7z"/>
<path d="M4055 131 c-10 -16 4 -51 21 -51 17 0 17 1 0 35 -8 16 -17 22 -21 16z"/>
<path d="M2526 105 c8 -26 11 -28 23 -20 19 11 12 41 -9 41 -15 0 -19 -5 -14
-21z"/>
<path d="M2612 105 c0 -16 2 -22 5 -12 2 9 2 23 0 30 -3 6 -5 -1 -5 -18z"/>
<path d="M3290 104 c0 -20 3 -25 9 -15 6 9 11 10 15 2 11 -18 26 -13 26 9 0
11 -4 20 -9 20 -5 0 -16 3 -25 6 -12 5 -16 0 -16 -22z"/>
<path d="M3382 105 c0 -16 2 -22 5 -12 2 9 2 23 0 30 -3 6 -5 -1 -5 -18z"/>
<path d="M3906 114 c-10 -25 -7 -30 14 -30 21 0 24 5 14 30 -8 20 -20 20 -28
0z"/>
<path d="M2752 100 c0 -14 2 -19 5 -12 2 6 2 18 0 25 -3 6 -5 1 -5 -13z"/>
</g>
</svg>
