<?xml version="1.0" standalone="no"?>
<!DOCTYPE svg PUBLIC "-//W3C//DTD SVG 20010904//EN"
 "http://www.w3.org/TR/2001/REC-SVG-20010904/DTD/svg10.dtd">
<svg version="1.0" xmlns="http://www.w3.org/2000/svg"
 width="637.000000pt" height="218.000000pt" viewBox="0 0 637.000000 218.000000"
 preserveAspectRatio="xMidYMid meet">

<g transform="translate(0.000000,218.000000) scale(0.100000,-0.100000)"
fill="#000000" stroke="none">
<path d="M3165 1885 l0 -77 47 4 c63 6 78 21 78 73 0 52 -13 64 -76 71 l-49 6
0 -77z m85 45 c37 -37 14 -110 -36 -110 -22 0 -24 4 -24 43 0 85 20 107 60 67z"/>
<path d="M3025 1924 c-8 -37 -25 -102 -32 -120 -3 -8 1 -14 11 -14 9 0 13 6
10 14 -7 18 22 46 47 46 18 0 23 -10 20 -36 -1 -7 9 -9 23 -7 24 5 23 5 -21
71 -25 37 -47 69 -49 71 -2 2 -6 -10 -9 -25z m29 -40 c9 -23 8 -24 -13 -24
-14 0 -18 5 -14 20 6 24 19 26 27 4z"/>
<path d="M3425 1920 c8 -13 -24 -101 -42 -116 -11 -9 -7 -14 18 -24 70 -30
129 -5 129 54 0 42 -8 52 -63 75 -26 12 -45 16 -42 11z m67 -37 c40 -36 9
-103 -48 -103 -39 0 -38 -2 -20 47 8 21 17 46 20 56 7 21 24 22 48 0z"/>
<path d="M2832 1882 c-39 -13 -42 -16 -29 -31 20 -23 49 -100 42 -112 -4 -5 4
-5 19 1 72 27 98 68 74 117 -17 35 -53 43 -106 25z m70 -19 c8 -10 18 -27 22
-37 8 -23 -18 -66 -40 -66 -18 0 -58 85 -50 106 8 20 50 18 68 -3z"/>
<path d="M3602 1845 c4 -6 -10 -35 -31 -66 l-37 -56 33 -21 c37 -25 58 -28 69
-10 5 7 3 8 -5 4 -12 -8 -71 11 -71 23 0 3 9 17 19 30 l18 23 20 -21 c17 -18
22 -19 26 -7 4 9 -3 16 -19 20 -27 7 -29 15 -11 40 12 16 16 17 35 5 12 -8 22
-21 22 -29 0 -13 2 -13 9 0 7 10 4 18 -7 25 -51 35 -76 49 -70 40z"/>
<path d="M2723 1829 c-8 -8 0 -27 23 -62 19 -29 32 -58 29 -64 -6 -16 0 -16
23 -2 18 11 17 13 -4 36 -12 13 -31 42 -42 63 -13 27 -22 36 -29 29z"/>
<path d="M2628 1759 c-54 -40 -28 -83 44 -73 30 4 48 2 53 -5 11 -19 -16 -43
-42 -38 -14 3 -22 0 -20 -6 6 -19 23 -18 50 3 50 39 25 83 -40 73 -18 -3 -40
-2 -49 1 -25 10 4 39 32 33 20 -3 22 -1 13 14 -12 23 -8 23 -41 -2z"/>
<path d="M3738 1661 c-14 -11 -28 -29 -31 -40 -5 -22 26 -81 44 -81 6 0 2 11
-9 25 -30 38 -10 83 45 99 31 10 67 -27 57 -57 -6 -19 -5 -20 10 -8 15 13 15
16 -7 45 -30 39 -73 45 -109 17z"/>
<path d="M3250 1648 c-23 -25 -23 -22 -24 -150 -2 -94 -1 -98 20 -98 12 0 27
6 33 13 11 14 44 139 56 215 l7 42 -36 0 c-23 0 -42 -7 -56 -22z"/>
<path d="M2497 1619 c-15 -17 -27 -32 -27 -34 0 -2 10 -5 23 -9 12 -3 39 -21
59 -40 25 -23 40 -30 47 -23 7 7 -7 23 -45 50 -50 35 -54 41 -41 55 23 22 50
8 44 -24 -4 -24 -3 -25 46 -22 32 2 52 8 55 17 3 10 0 12 -12 8 -20 -8 -77 3
-71 13 3 5 2 15 -1 24 -10 26 -47 18 -77 -15z"/>
<path d="M2950 1610 c-11 -11 -20 -28 -20 -38 0 -42 136 -218 162 -210 7 3 17
17 22 31 8 22 4 35 -26 79 -20 29 -45 72 -57 95 -28 56 -54 70 -81 43z"/>
<path d="M3488 1551 c-29 -23 -113 -185 -103 -200 15 -26 52 -9 106 47 65 67
109 120 109 132 0 6 -70 40 -84 40 -2 0 -14 -9 -28 -19z"/>
<path d="M2412 1485 c-17 -36 -19 -45 -7 -45 25 0 104 -43 107 -59 2 -8 14 9
27 37 20 43 22 55 11 65 -10 10 -12 9 -7 -6 6 -15 -4 -47 -18 -65 -4 -5 -55
21 -55 28 0 3 9 16 20 27 16 18 17 22 5 27 -8 3 -15 0 -15 -7 0 -25 -17 -39
-39 -32 -26 8 -27 29 -1 55 13 13 15 20 7 20 -7 0 -23 -20 -35 -45z"/>
<path d="M3780 1500 c0 -3 5 -12 10 -20 6 -10 10 -11 10 -2 0 23 40 13 52 -14
10 -22 10 -28 -5 -39 -10 -7 -15 -19 -11 -29 5 -12 14 -6 42 31 20 27 42 54
49 61 7 7 13 16 13 18 0 3 -36 4 -80 2 -44 -2 -80 -5 -80 -8z m120 -9 c0 -5
-7 -14 -16 -22 -13 -10 -17 -10 -24 2 -7 10 -4 16 8 21 24 9 32 9 32 -1z"/>
<path d="M2366 1382 c-10 -10 -6 -22 7 -22 6 0 28 -13 47 -29 l34 -29 -44 -9
c-28 -6 -50 -6 -57 0 -9 6 -13 6 -13 -1 0 -6 -3 -18 -7 -27 -5 -15 -3 -16 15
-6 11 6 38 11 59 12 21 1 49 4 63 8 24 7 24 7 -15 36 -21 17 -49 40 -61 51
-13 12 -25 19 -28 16z"/>
<path d="M2673 1382 c-6 -4 -14 -19 -18 -33 -10 -40 27 -73 105 -94 36 -9 79
-26 96 -36 41 -25 54 -24 54 4 -1 43 -28 70 -116 118 -93 51 -102 53 -121 41z"/>
<path d="M3659 1363 c-13 -10 -40 -27 -59 -37 -19 -11 -52 -33 -74 -49 l-38
-30 25 -14 c25 -13 73 -4 155 28 13 5 31 9 41 9 26 0 53 33 45 56 -11 29 -35
54 -54 54 -10 0 -28 -8 -41 -17z"/>
<path d="M3925 1363 c-22 -8 -47 -12 -56 -10 -15 4 -15 0 -3 -40 17 -55 22
-63 40 -63 10 0 9 5 -6 20 -35 35 -26 55 34 72 40 11 58 12 67 4 9 -8 10 -7 5
7 -3 10 -6 21 -6 23 0 8 -35 2 -75 -13z"/>
<path d="M3130 1348 c-125 -42 -189 -111 -198 -216 -6 -65 12 -153 41 -205 43
-78 167 -108 303 -72 66 17 98 44 157 130 35 51 41 68 41 110 -1 96 -60 188
-149 234 -49 24 -148 34 -195 19z m173 -74 c102 -52 137 -157 86 -259 -41 -83
-128 -131 -224 -123 -106 9 -165 80 -165 200 0 95 45 164 126 194 46 17 131
11 177 -12z"/>
<path d="M3149 1261 c-49 -15 -78 -43 -104 -96 -29 -63 -31 -84 -9 -128 66
-132 198 -156 294 -54 18 20 36 44 39 54 10 38 2 125 -13 148 -38 57 -142 95
-207 76z m122 -62 c32 -13 49 -47 49 -100 0 -76 -61 -126 -139 -113 -70 11
-119 111 -86 174 28 55 97 70 176 39z"/>
<path d="M3173 1172 c-43 -22 -52 -38 -43 -79 11 -48 32 -67 76 -67 28 0 42 7
60 28 62 71 -8 161 -93 118z m54 -68 c9 -23 -13 -40 -32 -24 -8 7 -15 19 -15
26 0 19 39 18 47 -2z"/>
<path d="M4030 1231 c0 -15 -111 -23 -127 -9 -14 11 -15 7 -9 -32 10 -60 35
-94 74 -98 48 -5 72 26 72 93 0 30 -2 55 -5 55 -3 0 -5 -4 -5 -9z m0 -61 c0
-22 -7 -33 -27 -43 -47 -24 -93 -5 -93 39 0 21 5 23 53 27 28 2 55 4 60 5 4 1
7 -11 7 -28z"/>
<path d="M2321 1179 c0 -19 3 -29 5 -22 6 13 111 7 129 -7 6 -5 10 1 11 13 1
20 -4 22 -59 25 -33 1 -66 7 -74 13 -10 9 -13 5 -12 -22z"/>
<path d="M3507 1113 c-11 -10 -7 -47 6 -64 16 -22 192 -82 216 -74 26 8 32 29
20 64 -11 33 -27 39 -144 66 -68 16 -89 18 -98 8z"/>
<path d="M2320 1089 c0 -8 17 -10 52 -7 l52 5 -52 -44 c-33 -29 -52 -53 -52
-66 1 -20 2 -21 14 -4 16 21 121 25 129 5 3 -7 6 -3 6 8 1 20 -3 21 -56 17
l-58 -5 55 51 55 50 -72 1 c-48 0 -73 -4 -73 -11z"/>
<path d="M3907 1053 c-4 -3 -7 -11 -7 -16 0 -6 3 -7 6 -4 9 9 46 -12 39 -23
-3 -5 -1 -11 5 -15 5 -3 10 -1 10 5 0 7 6 7 22 -1 19 -10 20 -12 4 -21 -9 -5
-24 -7 -31 -4 -8 3 -17 0 -21 -5 -3 -6 -15 -9 -25 -6 -14 4 -19 0 -19 -15 0
-15 4 -18 18 -13 9 3 31 9 47 12 17 4 43 12 58 18 l29 12 -49 28 c-26 15 -55
34 -64 41 -9 8 -19 11 -22 7z"/>
<path d="M2696 1039 c-63 -10 -80 -25 -63 -59 17 -33 76 -38 179 -13 61 14 78
22 78 36 0 31 -103 51 -194 36z"/>
<path d="M2383 917 c-33 -8 -43 -16 -43 -31 0 -18 1 -18 13 -4 11 14 38 24 88
34 25 5 56 -33 43 -53 -13 -20 -82 -46 -107 -39 -13 3 -17 0 -13 -11 3 -8 6
-19 6 -25 0 -7 4 -7 13 -1 6 5 33 17 60 27 55 21 69 51 43 91 -18 27 -34 29
-103 12z"/>
<path d="M3416 914 c-16 -43 -6 -56 112 -151 46 -37 58 -40 90 -17 31 21 28
45 -10 80 -27 25 -165 104 -182 104 -2 0 -7 -7 -10 -16z"/>
<path d="M2909 892 c-22 -9 -159 -139 -159 -151 0 -15 56 -51 78 -51 38 0 169
168 147 189 -15 14 -48 20 -66 13z"/>
<path d="M3866 868 c-20 -28 -20 -43 0 -62 20 -21 25 -20 69 10 43 29 72 26
55 -6 -6 -11 -21 -20 -33 -20 -18 0 -19 -2 -7 -10 25 -16 35 -12 46 19 21 55
-31 85 -71 41 -19 -21 -50 -26 -60 -10 -3 5 5 21 19 35 16 16 20 25 11 25 -8
0 -21 -10 -29 -22z"/>
<path d="M3265 813 c-15 -15 -14 -33 5 -78 4 -11 18 -52 30 -92 25 -84 46 -99
86 -62 34 32 34 28 -33 191 -19 45 -64 66 -88 41z"/>
<path d="M3081 774 c-11 -15 -21 -30 -21 -35 0 -5 -11 -32 -24 -61 -35 -78
-39 -97 -26 -113 18 -21 67 -18 89 4 27 27 54 121 55 191 1 31 -2 35 -25 38
-19 2 -33 -4 -48 -24z"/>
<path d="M3797 573 c13 -2 30 -14 38 -26 11 -15 15 -17 15 -6 0 23 -21 39 -49
38 -24 -2 -24 -2 -4 -6z"/>
<path d="M2610 564 c0 -5 -12 -22 -26 -37 -25 -27 -25 -29 -8 -48 9 -10 22
-19 27 -19 6 0 2 9 -9 21 -19 21 -18 21 10 46 21 18 26 27 17 36 -6 6 -11 7
-11 1z"/>
<path d="M3760 548 c0 -21 34 -58 54 -58 7 0 18 6 25 13 8 11 5 13 -18 9 -24
-3 -32 1 -45 24 -11 20 -15 24 -16 12z"/>
<path d="M3715 510 c-3 -5 1 -10 10 -10 9 0 13 5 10 10 -3 6 -8 10 -10 10 -2
0 -7 -4 -10 -10z"/>
<path d="M2680 497 c0 -8 -7 -20 -15 -27 -20 -16 -19 -44 2 -61 15 -13 15 -12
3 7 -11 19 -10 25 9 52 13 19 17 33 11 37 -5 3 -10 0 -10 -8z"/>
<path d="M3691 462 c-1 -25 4 -35 22 -41 31 -12 44 -1 16 13 -13 6 -26 22 -30
36 -6 23 -7 22 -8 -8z"/>
<path d="M3745 481 c-3 -6 -2 -11 4 -11 5 0 11 -8 13 -17 2 -10 6 -13 10 -8 3
6 0 18 -7 28 -8 12 -15 14 -20 8z"/>
<path d="M2712 432 l-23 -37 26 28 c14 15 25 32 25 38 0 14 -3 11 -28 -29z"/>
<path d="M2770 429 c0 -6 -9 -24 -20 -39 -15 -21 -17 -31 -9 -36 7 -4 10 -3 6
2 -3 5 1 18 9 29 13 18 14 17 14 -15 0 -47 13 -29 18 25 2 28 -1 45 -7 45 -6
0 -11 -5 -11 -11z"/>
<path d="M3630 425 c10 -12 10 -19 2 -27 -8 -8 -13 -6 -19 10 -6 16 -12 19
-23 12 -10 -6 -11 -10 -3 -10 7 0 21 -16 31 -36 11 -21 22 -32 26 -26 3 6 2
13 -4 17 -21 13 -9 24 17 14 18 -7 30 -6 37 1 7 7 3 10 -12 10 -15 0 -26 9
-32 25 -5 14 -15 25 -21 25 -8 0 -8 -5 1 -15z"/>
<path d="M3929 400 c-29 -17 -43 -66 -29 -100 15 -36 37 -50 78 -50 30 0 72
36 71 61 0 8 -5 3 -10 -10 l-10 -25 -22 22 c-18 18 -20 26 -10 41 14 23 0 41
-33 41 -19 0 -22 -6 -26 -50 -2 -41 0 -50 14 -50 12 0 15 6 10 22 -5 22 -5 22
25 -2 32 -26 27 -40 -15 -40 -28 0 -72 42 -72 68 0 11 9 31 21 46 35 44 101
32 122 -24 5 -13 6 -13 6 1 2 42 -77 74 -120 49z m53 -45 c0 -5 -5 -11 -11
-13 -6 -2 -11 4 -11 13 0 9 5 15 11 13 6 -2 11 -8 11 -13z"/>
<path d="M2819 379 c-13 -11 -18 -18 -11 -14 15 8 15 0 2 -26 -6 -10 -7 -19
-2 -19 9 0 45 70 39 76 -2 3 -15 -5 -28 -17z"/>
<path d="M2877 337 c-23 -53 -14 -60 12 -9 12 23 17 43 13 46 -4 2 -15 -14
-25 -37z"/>
<path d="M3520 335 c0 -25 4 -45 8 -45 5 0 8 14 7 30 -2 36 2 37 26 8 11 -11
22 -18 26 -14 7 7 -45 66 -59 66 -4 0 -8 -20 -8 -45z"/>
<path d="M2937 333 c-3 -16 -8 -37 -11 -48 -4 -11 0 -7 8 9 13 29 14 29 25 8
6 -11 11 -29 11 -39 1 -17 2 -17 15 1 8 11 15 27 14 35 0 12 -2 11 -8 -3 -6
-16 -10 -13 -24 22 -9 23 -19 42 -21 42 -2 0 -6 -12 -9 -27z"/>
<path d="M3434 342 c-7 -5 -5 -21 6 -50 9 -23 19 -40 22 -36 4 3 4 12 1 20 -3
8 2 23 12 34 9 10 14 24 10 29 -11 18 -23 12 -18 -8 3 -10 0 -21 -5 -25 -11
-7 -25 21 -16 35 6 11 3 11 -12 1z"/>
<path d="M2997 329 c7 -7 15 -10 18 -7 3 3 -2 9 -12 12 -14 6 -15 5 -6 -5z"/>
<path d="M3340 302 c0 -11 12 -22 31 -29 19 -7 28 -16 24 -23 -4 -6 -13 -9
-21 -6 -7 3 -16 1 -19 -4 -9 -14 29 -12 43 2 18 18 15 26 -18 43 -17 9 -28 20
-25 25 4 6 1 10 -4 10 -6 0 -11 -8 -11 -18z"/>
<path d="M3064 299 c-3 -6 0 -16 7 -21 11 -8 10 -9 -3 -5 -10 4 -22 -3 -32
-19 -18 -27 -10 -34 9 -7 13 18 35 10 35 -13 0 -8 5 -14 11 -14 7 0 9 9 5 23
-3 12 -6 32 -6 45 0 23 -14 30 -26 11z"/>
</g>
</svg>
